<?xml version="1.0" encoding="UTF-8"?>
<svg id="typography-2" data-name="typography" xmlns="http://www.w3.org/2000/svg" viewBox="0 0 578.59 181.69">
  <defs>
    <style>
      .cls-1 {
        fill: #42c7f4;
      }

      .cls-1, .cls-2 {
        stroke-width: 0px;
      }

      .cls-2 {
        fill: #000;
      }
    </style>
  </defs>
  <path class="cls-2" d="M19.38,107.7l9.66-5.7c6.75,12.46,14.62,18.68,23.59,18.68,5.8,0,10.77-1.85,14.88-5.54,4.12-3.69,6.17-8.29,6.17-13.77,0-4.33-1.74-8.71-5.22-13.14-3.48-4.43-9.26-9.68-17.34-15.75-8.08-6.07-13.51-10.61-16.31-13.62-2.8-3.01-4.86-6.23-6.17-9.66-1.32-3.43-1.98-6.89-1.98-10.37,0-7.39,2.61-13.64,7.84-18.76,5.22-5.12,11.8-7.68,19.71-7.68,6.23,0,11.66,1.56,16.31,4.67,4.64,3.11,9.13,7.73,13.46,13.85l-9.18,7.12c-2.96-4.01-6.02-7.34-9.18-9.98-3.17-2.64-7.05-3.96-11.64-3.96s-8.34,1.37-11.24,4.12c-2.9,2.75-4.35,6.23-4.35,10.45s1.29,7.89,3.88,11c2.58,3.11,8.44,8.05,17.57,14.8,9.13,6.76,15.78,12.98,19.95,18.68,4.17,5.7,6.25,11.72,6.25,18.05,0,8.23-3.19,15.39-9.58,21.45-6.39,6.07-13.8,9.1-22.25,9.1-14.88,0-26.5-8.02-34.83-24.07Z"/>
  <path class="cls-2" d="M96.8,44.85h11.24l25.65,63.81,27.07-63.81h1.9l26.92,63.81,26.12-63.81h11.4l-36.57,86.92h-2.06l-26.76-63.02-26.92,63.02h-2.06l-35.94-86.92Z"/>
  <path class="cls-2" d="M234.7,21.41c0-2.43.87-4.54,2.61-6.33,1.74-1.79,3.85-2.69,6.33-2.69s4.59.87,6.33,2.61c1.74,1.74,2.61,3.85,2.61,6.33s-.87,4.59-2.61,6.33c-1.74,1.74-3.85,2.61-6.33,2.61s-4.59-.9-6.33-2.69c-1.74-1.79-2.61-3.85-2.61-6.17ZM238.19,44.85h10.92v84.07h-10.92V44.85Z"/>
  <path class="cls-2" d="M269.85,53.08h10.77v116.53h-10.77V53.08Z"/>
  <path class="cls-2" d="M361.37,101.69l9.18,4.75c-9.08,16.89-22.48,25.33-40.22,25.33-12.67,0-23.12-4.35-31.35-13.06-8.23-8.71-12.35-19.18-12.35-31.43s4.14-22.75,12.43-31.51c8.29-8.76,18.52-13.14,30.72-13.14s22.43,4.06,30.72,12.19c8.29,8.13,12.59,19.21,12.9,33.25h-75.68c.32,10.13,3.51,18.29,9.58,24.46,6.07,6.18,13.43,9.26,22.09,9.26,14.25,0,24.91-6.7,31.98-20.11ZM361.37,78.73c-1.48-8.02-5.17-14.3-11.08-18.84-5.91-4.54-12.72-6.81-20.42-6.81-15.83,0-26.18,8.55-31.03,25.65h62.54Z"/>
  <path class="cls-2" d="M389.39,44.85h11.08v12.19c2.95-4.96,5.83-8.6,8.63-10.92,2.79-2.32,5.91-3.48,9.34-3.48s6.89.95,10.37,2.85l-5.7,9.18c-1.58-.95-3.22-1.42-4.91-1.42-3.27,0-6.36,1.69-9.26,5.07-2.9,3.38-5.04,7.73-6.41,13.06-1.37,5.33-2.06,15.02-2.06,29.05v28.5h-11.08V44.85Z"/>
  <rect class="cls-2" x="439.58" y="44.85" width="10.92" height="84.07"/>
  <path class="cls-2" d="M556.59,44.85v84.07h-10.61v-14.41c-9.61,11.51-20.58,17.26-32.93,17.26s-22.77-4.41-31.27-13.22c-8.5-8.81-12.75-19.32-12.75-31.51s4.27-22.64,12.82-31.35c8.55-8.71,18.79-13.06,30.72-13.06,13.72,0,24.86,5.86,33.41,17.57v-15.36h10.61ZM546.61,87.28c0-9.6-3.22-17.71-9.66-24.3-6.44-6.6-14.33-9.9-23.67-9.9s-17.23,3.4-23.67,10.21c-6.44,6.81-9.66,14.86-9.66,24.15s3.27,17.34,9.82,24.15c6.54,6.81,14.38,10.21,23.51,10.21s16.97-3.27,23.51-9.82c6.54-6.54,9.82-14.78,9.82-24.7Z"/>
  <circle class="cls-1" cx="445.04" cy="21.34" r="16.69"/>
</svg>