<?xml version="1.0" encoding="UTF-8"?>
<svg id="logotype" xmlns="http://www.w3.org/2000/svg" viewBox="0 0 512 512">
  <defs>
    <style>
      .cls-1 {
        fill: #000;
      }

      .cls-1, .cls-2, .cls-3 {
        stroke-width: 0px;
      }

      .cls-2 {
        fill: #135d66;
      }

      .cls-3 {
        fill: #03aed2;
      }
    </style>
  </defs>
  <g id="logo">
    <path class="cls-3" d="M104.25,200.11c.05-25.43,5.95-49.38,17.9-71.85,5.77-10.85,12.67-20.87,20.93-29.95,1.53-1.68,1.47-3.24.96-5.25-1.78-7.05,1.3-14.22,7.28-17.39,6.67-3.54,14.02-2.3,19.03,3.2,4.09,4.49,4.99,11.61,2.18,17.3-2.8,5.66-8.92,9.15-15.62,7.92-3.82-.7-5.95.57-8.19,3.23-15.25,18.09-25.71,38.56-30.95,61.68-2.47,10.88-3.82,21.93-3.54,33.05.87,34.7,12.4,65.41,35.22,91.67,22.51,25.91,50.82,41.6,84.52,47.62,7.76,1.39,15.62,1.74,23.48,2.15,1.91.1,3.86.08,5.71.47,3.06.63,4.64,2.7,4.24,5.33-.44,2.86-2.42,4.14-5.12,4.19-4.34.08-8.69.2-13.02-.06-16.94-1.02-33.36-4.46-49.11-10.9-32.93-13.48-58.3-35.67-76.04-66.51-11.2-19.46-17.7-40.44-19.36-62.88-.16-2.21-.4-4.42-.49-6.64-.08-2.12-.02-4.24-.02-6.37ZM158.96,83.09c-2.97-.07-5.91,2.66-6.06,5.62-.16,3.24,2.44,6.12,5.66,6.26,3.16.14,6.15-2.59,6.23-5.71.08-3.16-2.69-6.1-5.83-6.18Z"/>
    <path class="cls-2" d="M269.57,121.53c14.58-.08,30.78,3.21,46.87,7.18,3.37.83,4.78,3.01,4.11,5.93-.59,2.57-3,3.85-6.26,3.08-10.42-2.45-20.86-4.74-31.52-5.9-19.66-2.15-39.04-1.49-57.04,7.8-20.91,10.79-33.87,27.92-37.42,51.29-3.09,20.33,3.17,38.34,16.04,54.13,12.04,14.78,28.12,21.82,46.67,23.97.5.06,1.01.09,1.5.21,3.51.88,6.32.5,8.41-3.12,3.06-5.29,11.59-7.58,17.81-4.87,6.25,2.73,10.2,9.07,9.47,15.75-.78,7.14-5.69,12.33-12.96,13.67-6.47,1.19-13.06-2.21-16.11-8.66-1.06-2.24-2.42-2.95-4.82-3.2-13.14-1.35-25.96-3.98-37.5-10.85-16.16-9.63-27.28-23.55-33.77-41.07-13.91-37.58,2.86-78.24,39.43-96.21,14.2-6.98,29.34-9.2,47.08-9.13ZM278.96,275.99c.21-2.97-2.56-6.35-5.44-6.65-3.02-.31-6.3,2.6-6.58,5.82-.24,2.88,2.76,6.16,5.76,6.28,2.87.12,6.06-2.66,6.26-5.45Z"/>
    <path class="cls-2" d="M262.04,72.54c29.67.66,56.77,5.02,83.24,13.2,6.36,1.96,12.62,4.25,18.87,6.52,3.68,1.34,4.97,3.58,3.99,6.32-1.02,2.85-3.75,3.86-7.31,2.5-21.02-8-42.65-13.68-64.95-16.57-25.79-3.34-51.55-4.15-76.71,4.09-29.94,9.81-51.81,29.3-66.71,56.89-2.6,4.8-4.72,9.83-6.75,14.9-.93,2.32-.88,3.85,1.32,5.66,5.1,4.17,6.59,9.84,4.84,16.11-1.67,5.99-5.88,9.47-11.95,10.71-6.29,1.28-12.93-2.05-16.1-7.57-3.78-6.59-1.7-14.49,2.55-18.4,1.55-1.43,3.1-3.06,5.26-3.44,2.9-.5,4.07-2.29,4.97-4.92,8.43-24.35,23.06-44.24,43.41-59.96,19.26-14.88,41.3-22.47,65.28-24.89,6.21-.63,12.47-.86,16.73-1.15ZM143.08,177.9c.05-3.29-2.58-6.14-5.72-6.2-2.94-.05-6.15,3.02-6.17,5.89-.02,3.1,2.87,6.17,5.84,6.2,3.16.04,6-2.74,6.05-5.9Z"/>
    <path class="cls-2" d="M227.89,201.15c.05-16.67,12-29.13,27.66-29.9,9.2-.45,18.34.22,27.44,1.4,2.16.28,3.52-.29,5.01-1.81,4.52-4.63,11.24-5.83,17.04-3.29,5.94,2.6,9.3,8.21,9.06,15.11-.22,6.08-4.33,11.53-10.32,13.66-8.47,3.01-18-2.33-20.01-11.45-.5-2.27-1.46-2.85-3.58-3.07-7.74-.77-15.46-1.49-23.25-1.16-8.8.37-15.8,5.24-18.39,12.89-2.74,8.07-.33,16.64,6.14,22.26,4.54,3.95,10.14,4.47,15.66,4.54,21.02.27,41.06,4.91,60.08,13.65,23.93,11,43.79,27.21,59.55,48.39.18.24.35.49.52.75,1.96,2.99,1.84,6.08-.29,7.63-2.4,1.74-5.18.91-7.46-2.17-20.44-27.71-47.37-45.84-80.61-54.56-10.77-2.82-21.75-4.22-32.92-4.3-10.53-.07-19.61-3.46-25.95-12.44-3.62-5.12-5.07-10.92-5.36-16.13ZM304.72,181.73c.02-3.13-2.81-5.92-6.02-5.93-3.13,0-5.72,2.55-5.82,5.74-.1,3.21,2.62,6.08,5.8,6.11,3.19.04,6.02-2.74,6.03-5.92Z"/>
    <path class="cls-2" d="M265.35,254.51c-10.39-.18-20.34-.62-29.66-4.83-14.06-6.35-23.67-16.9-29.1-31.26-.93-2.45-2.21-3.96-4.6-5.1-6.61-3.15-9.83-9.86-8.4-16.76,1.46-7.08,6.86-11.78,14.2-12.36,6.61-.52,12.86,3.65,15.25,10.18,2.35,6.43.4,13.72-5.3,17.48-2.77,1.83-2.65,3.42-1.43,5.91,8.15,16.65,21.15,26.39,39.87,26.95,21.2.63,41.43,4.67,60.28,14.69,19.64,10.44,35.64,24.93,47.89,43.53,1.86,2.82,1.51,5.59-.82,7.24-2.35,1.66-5.02,1.05-6.95-1.87-7.43-11.21-16.37-21.02-27.01-29.22-13.53-10.43-28.59-17.67-45.23-21.7-6.4-1.55-12.85-2.43-18.99-2.88ZM208.49,205.4c3.46.04,6.06-2.45,6.06-5.78,0-3.19-2.83-6.02-6-6.01-2.97,0-5.89,2.85-5.94,5.78-.06,3.31,2.53,5.97,5.88,6Z"/>
    <path class="cls-2" d="M130.19,214.58c0-1.1-.01-1.71,0-2.31.07-3.23,1.6-5.04,4.32-5.14,2.65-.09,4.67,1.67,4.94,4.69.52,5.85,1.37,11.64,2.87,17.32,5.04,19.01,14.25,35.71,27.6,50.19,16.82,18.25,37.13,30.57,61.19,36.57,7.95,1.98,16.06,3.17,24.27,2.84,18.25-.72,32.59,6.84,44.14,20.49,2.31,2.73,2.38,6.12.2,7.84-2.18,1.72-5.02,1.01-7.36-1.75-9.6-11.33-21.44-17.47-36.66-17.32-28.31.27-53.33-9.39-75.76-26.35-17.18-12.99-30.16-29.4-39.24-48.86-5.72-12.26-9.34-25.16-10.53-38.19Z"/>
    <path class="cls-3" d="M153.91,198.54c.63-29.25,12.4-55.78,35.78-77.03,2.23-2.03,4.66-3.88,7.17-5.57,1.83-1.24,2.83-2.71,3.04-4.9.64-6.82,4.52-11.28,10.86-13.11,6.17-1.79,11.87-.28,16.11,4.87,4.2,5.11,4.63,10.85,2.02,16.79-3.58,8.13-14.93,11.1-22.51,5.63-2.73-1.97-4.4-1.58-6.73.32-17.87,14.6-29.44,33.2-34.26,55.67-4.43,20.68-1.97,40.79,7.45,59.88.22.45.48.89.7,1.34,1.53,3.11.79,5.98-1.87,7.24-2.45,1.16-5.14-.03-6.66-3.03-2.61-5.14-4.81-10.46-6.52-15.97-3.02-9.71-4.48-19.67-4.56-32.14ZM221.11,112.98c.1-3.09-3.01-6.28-6.13-6.31-2.93-.02-5.74,2.81-5.79,5.84-.05,3.3,2.54,6,5.84,6.07,2.94.06,5.99-2.75,6.08-5.6Z"/>
    <path class="cls-3" d="M269.22,156.89c-7.56-.12-15.12-.28-22.64.69-7.31.94-13.8,3.63-18.9,9.21-2.37,2.59-5.07,2.94-7.18,1.1-2.19-1.92-2.05-4.8.33-7.49,7.27-8.22,16.81-11.78,27.34-12.59,25.61-1.95,50.73.95,75.29,8.58,31.4,9.75,59.23,25.85,84.05,47.33,2.38,2.06,2.95,5.26,1.31,7.24-1.86,2.25-4.74,2.19-7.47-.17-16.46-14.17-34.33-26.28-54.08-35.29-24.74-11.29-50.66-18.16-78.04-18.62Z"/>
    <path class="cls-2" d="M177.49,274.92c-.04-9.21,7.57-16.34,16.69-15.63,8.84.68,15.37,8.94,13.79,17.9-.47,2.65.32,3.86,2.49,4.96,13.21,6.66,27.06,10.91,41.92,11.8,9.04.55,18.21.37,26.98,3.07,17.26,5.3,31.14,15.41,41.76,30.02.77,1.06,1.54,2.12,2.29,3.2,2.34,3.37,2.17,6.57-.42,8.26-2.4,1.57-5.06.6-7.26-2.76-4.41-6.71-9.68-12.6-16.01-17.6-11.83-9.34-25.14-14.31-40.23-14.37-16.37-.07-32.03-3.47-46.97-10.14-2.85-1.27-5.65-2.7-8.32-4.3-1.91-1.14-3.47-1.29-5.6-.38-9.99,4.24-21.06-3.21-21.1-14.03ZM192.71,280.55c3.38.07,6.01-2.45,6.02-5.76,0-3.32-2.62-6.05-5.84-6.06-3.05-.02-5.98,2.94-5.95,6.03.02,3.04,2.7,5.73,5.78,5.79Z"/>
    <path class="cls-3" d="M261.32,195.57c29.69,1.09,57.34,8.55,83.07,23.07,13.54,7.64,25.71,17.05,36.85,27.81,4.34,4.19,8.23,8.86,12.25,13.37,1.2,1.35,2.35,2.89,2.09,4.86-.26,1.94-1.38,3.33-3.29,3.98-2.3.79-3.91-.34-5.27-1.98-4.64-5.6-9.58-10.93-14.88-15.9-20.73-19.41-44.78-32.87-72.22-40.21-13.72-3.67-27.72-5.2-41.86-5.61-3.73-.11-5.45-1.51-5.46-4.57-.01-2.98,1.89-4.71,5.36-4.82,1.21-.04,2.42,0,3.38,0Z"/>
    <path class="cls-2" d="M266.07,96.75c30.5.34,59.86,6.4,88.23,17.52,13.09,5.13,25.69,11.25,37.85,18.29.52.3,1.06.59,1.55.94,2.47,1.74,3.21,4.35,1.88,6.55-1.33,2.22-3.97,2.85-6.63,1.45-5-2.63-9.91-5.42-14.94-7.99-20.51-10.48-41.99-18.14-64.59-22.73-16.18-3.28-32.52-4.65-48.99-4.71-2.01,0-4.03.25-6.04.2-3.03-.07-4.92-1.71-5.05-4.16-.15-2.76,1.49-4.39,4.64-4.83,4.02-.56,8.04-.56,12.08-.54Z"/>
    <path class="cls-2" d="M260.86,48.07c17.27-.43,36.11,3.64,54.43,10.49,1.22.46,2.45.98,3.56,1.66,2.17,1.34,2.98,3.32,1.96,5.72-1.06,2.52-3.12,3.47-5.69,2.64-4.03-1.3-7.97-2.89-11.99-4.22-20.57-6.78-41.6-8.47-63.06-5.84-18.46,2.26-35.78,7.99-52.14,16.77-3.15,1.69-5.98,1.05-7.35-1.52-1.36-2.54-.33-5.19,2.93-6.93,16.9-9.04,34.81-14.98,53.83-17.51,7.02-.93,14.06-1.29,23.52-1.27Z"/>
    <path class="cls-2" d="M355.3,130.8c8.55.24,15.24,6.68,15.35,15.2.03,2.27.93,3.19,2.65,4.13,10.81,5.92,21.1,12.69,31.23,19.7,1.32.91,2.75,1.79,3.14,3.54.41,1.82-.03,3.44-1.42,4.69-1.5,1.35-3.31,1.66-5.05.66-2.45-1.4-4.81-2.96-7.13-4.57-7.47-5.18-15.24-9.89-23.03-14.57-2.93-1.76-5.12-2.08-8.18-.07-5.72,3.76-12.51,2.85-17.95-1.72-4.59-3.86-6.31-11.27-3.99-17.22,2.28-5.87,8.28-9.94,14.38-9.76ZM361.12,146.34c.05-3.22-2.68-6.06-5.88-6.09-2.9-.04-5.88,2.86-5.94,5.77-.07,3.17,2.71,6.19,5.77,6.27,3.09.08,6-2.78,6.05-5.95Z"/>
    <path class="cls-2" d="M405.23,237.97c-.05,3.47-3.48,5.48-6.76,3.97-1.23-.57-2.08-1.58-2.99-2.53-13.58-14.19-29.08-25.9-46.24-35.39-5.91-3.27-12.02-6.18-18.24-8.84-3.55-1.52-4.67-3.79-3.53-6.56,1.17-2.84,3.88-3.66,7.44-2.11,13.64,5.94,26.57,13.12,38.74,21.74,10.5,7.44,20.1,15.88,29.09,25.05,1.78,1.81,2.5,3.18,2.48,4.68Z"/>
    <path class="cls-3" d="M305.8,282.73c1.85.06,3.08.47,4.21,1.19,14.18,8.94,26.11,20.16,34.99,34.48,1.92,3.1,1.61,6.33-.74,7.78-2.41,1.48-5.48.37-7.36-2.7-8.13-13.23-18.92-23.74-32.23-31.66-2.42-1.44-3.46-3.36-2.72-6.05.58-2.13,2.26-2.96,3.85-3.04Z"/>
  </g>
  <g id="typography">
    <path class="cls-1" d="M59.87,445.21l7.29-4.3c5.1,9.41,11.04,14.11,17.81,14.11,4.38,0,8.13-1.39,11.24-4.18,3.11-2.79,4.66-6.26,4.66-10.4,0-3.27-1.31-6.58-3.95-9.92-2.63-3.35-6.99-7.31-13.09-11.9-6.1-4.58-10.2-8.01-12.32-10.28-2.11-2.27-3.67-4.7-4.66-7.29-1-2.59-1.49-5.2-1.49-7.83,0-5.58,1.97-10.3,5.92-14.17,3.95-3.87,8.91-5.8,14.89-5.8,4.7,0,8.81,1.18,12.32,3.53,3.51,2.35,6.89,5.84,10.16,10.46l-6.94,5.38c-2.23-3.03-4.54-5.54-6.93-7.53-2.39-1.99-5.32-2.99-8.79-2.99s-6.3,1.04-8.49,3.11c-2.19,2.07-3.29,4.7-3.29,7.89s.98,5.96,2.93,8.31c1.95,2.35,6.38,6.08,13.27,11.18,6.89,5.1,11.92,9.8,15.06,14.11,3.15,4.3,4.72,8.85,4.72,13.63,0,6.22-2.41,11.62-7.23,16.2-4.82,4.58-10.42,6.88-16.8,6.88-11.24,0-20.01-6.06-26.3-18.17Z"/>
    <path class="cls-1" d="M118.34,397.75h8.49l19.37,48.18,20.45-48.18h1.44l20.33,48.18,19.73-48.18h8.61l-27.62,65.64h-1.55l-20.21-47.59-20.33,47.59h-1.55l-27.14-65.64Z"/>
    <path class="cls-1" d="M222.48,380.05c0-1.83.66-3.43,1.97-4.78,1.31-1.35,2.91-2.03,4.78-2.03s3.47.66,4.78,1.97c1.32,1.32,1.97,2.91,1.97,4.78s-.66,3.47-1.97,4.78c-1.31,1.31-2.91,1.97-4.78,1.97s-3.47-.68-4.78-2.03c-1.32-1.35-1.97-2.91-1.97-4.66ZM225.11,397.75h8.25v63.49h-8.25v-63.49Z"/>
    <path class="cls-1" d="M249.03,403.96h8.13v88h-8.13v-88Z"/>
    <path class="cls-1" d="M318.13,440.67l6.94,3.59c-6.86,12.75-16.98,19.13-30.37,19.13-9.57,0-17.46-3.29-23.67-9.86-6.22-6.58-9.33-14.49-9.33-23.73s3.13-17.18,9.39-23.79c6.26-6.62,13.99-9.92,23.2-9.92s16.94,3.07,23.2,9.21c6.26,6.14,9.51,14.51,9.74,25.11h-57.15c.24,7.65,2.65,13.81,7.23,18.47,4.58,4.66,10.14,6.99,16.68,6.99,10.76,0,18.81-5.06,24.15-15.19ZM318.13,423.33c-1.12-6.06-3.91-10.8-8.37-14.23-4.46-3.43-9.61-5.14-15.42-5.14-11.96,0-19.77,6.46-23.43,19.37h47.23Z"/>
    <path class="cls-1" d="M339.3,397.75h8.37v9.21c2.23-3.75,4.4-6.5,6.52-8.25,2.11-1.75,4.46-2.63,7.05-2.63s5.2.72,7.83,2.15l-4.3,6.93c-1.2-.72-2.43-1.08-3.71-1.08-2.47,0-4.8,1.28-6.99,3.83-2.19,2.55-3.81,5.84-4.84,9.86-1.04,4.03-1.55,11.34-1.55,21.94v21.52h-8.37v-63.49Z"/>
    <rect class="cls-1" x="377.2" y="397.75" width="8.25" height="63.49"/>
    <path class="cls-1" d="M465.56,397.75v63.49h-8.01v-10.88c-7.25,8.69-15.54,13.03-24.87,13.03s-17.2-3.33-23.61-9.98c-6.42-6.65-9.62-14.59-9.62-23.79s3.23-17.1,9.68-23.67c6.46-6.58,14.19-9.86,23.2-9.86,10.36,0,18.77,4.42,25.23,13.27v-11.6h8.01ZM458.02,429.79c0-7.25-2.43-13.37-7.29-18.35-4.86-4.98-10.82-7.47-17.88-7.47s-13.01,2.57-17.87,7.71c-4.86,5.14-7.29,11.22-7.29,18.23s2.47,13.09,7.41,18.23c4.94,5.14,10.86,7.71,17.76,7.71s12.81-2.47,17.76-7.41c4.94-4.94,7.41-11.16,7.41-18.65Z"/>
    <circle class="cls-3" cx="381.32" cy="379.99" r="12.6"/>
  </g>
</svg>