<?xml version="1.0" encoding="UTF-8"?>
<svg id="logo" xmlns="http://www.w3.org/2000/svg" viewBox="0 0 512 512">
  <defs>
    <style>
      .cls-1 {
        fill: #00b3b1;
        stroke-width: 0px;
      }
    </style>
  </defs>
  <g>
    <path class="cls-1" d="M268.87,338.62c-15.98-.28-31.28-.96-45.62-7.43-21.63-9.76-36.41-26-44.77-48.08-1.43-3.77-3.4-6.1-7.07-7.85-10.17-4.85-15.12-15.17-12.92-25.79,2.25-10.89,10.55-18.12,21.84-19.02,10.17-.81,19.78,5.61,23.46,15.66,3.62,9.89.62,21.1-8.16,26.89-4.26,2.81-4.08,5.25-2.2,9.09,12.53,25.61,32.53,40.6,61.34,41.46,32.61.97,63.74,7.19,92.73,22.6,30.22,16.07,54.82,38.35,73.67,66.96,2.86,4.34,2.33,8.6-1.26,11.14-3.62,2.56-7.72,1.62-10.69-2.87-11.43-17.24-25.18-32.33-41.55-44.95-20.81-16.04-43.98-27.19-69.57-33.37-9.84-2.38-19.77-3.74-29.22-4.43ZM181.4,263.06c5.32.06,9.32-3.76,9.32-8.89,0-4.9-4.35-9.25-9.23-9.24-4.57.01-9.05,4.38-9.14,8.89-.1,5.1,3.9,9.18,9.04,9.23Z"/>
    <path class="cls-1" d="M331.1,382.03c2.85.09,4.74.73,6.48,1.83,21.81,13.75,40.17,31.01,53.83,53.05,2.96,4.77,2.47,9.74-1.14,11.96-3.71,2.28-8.43.57-11.33-4.15-12.5-20.35-29.11-36.52-49.58-48.71-3.72-2.21-5.32-5.17-4.19-9.3.9-3.28,3.47-4.55,5.93-4.68Z"/>
    <path class="cls-1" d="M21.04,254.94c.07-39.11,9.15-75.96,27.54-110.53,8.88-16.69,19.49-32.11,32.19-46.08,2.35-2.59,2.26-4.98,1.47-8.08-2.74-10.84,2.01-21.87,11.21-26.75,10.26-5.44,21.57-3.54,29.28,4.93,6.29,6.91,7.67,17.87,3.35,26.61-4.3,8.71-13.73,14.08-24.03,12.18-5.88-1.08-9.15.87-12.6,4.97-23.46,27.83-39.55,59.33-47.61,94.89-3.79,16.74-5.88,33.73-5.45,50.85,1.34,53.37,19.07,100.62,54.18,141.02,34.63,39.85,78.18,63.99,130.02,73.26,11.93,2.13,24.03,2.67,36.11,3.31,2.94.15,5.93.13,8.79.72,4.7.97,7.14,4.15,6.52,8.19-.67,4.41-3.72,6.36-7.88,6.44-6.67.13-13.37.31-20.02-.09-26.06-1.57-51.33-6.85-75.55-16.77-50.66-20.73-89.68-54.88-116.98-102.31-17.23-29.94-27.23-62.21-29.78-96.73-.25-3.41-.62-6.81-.76-10.22-.13-3.26-.03-6.53-.03-9.79ZM105.21,74.91c-4.57-.11-9.1,4.1-9.32,8.65-.25,4.98,3.76,9.42,8.71,9.64,4.87.21,9.45-3.99,9.58-8.79.13-4.86-4.14-9.39-8.97-9.5Z"/>
    <path class="cls-1" d="M275.36,134.04c22.42-.13,47.34,4.94,72.1,11.05,5.18,1.28,7.35,4.63,6.33,9.12-.9,3.95-4.61,5.92-9.64,4.74-16.03-3.77-32.1-7.28-48.49-9.08-30.24-3.3-60.05-2.3-87.74,11.99-32.16,16.6-52.11,42.95-57.57,78.91-4.75,31.27,4.88,58.99,24.67,83.27,18.53,22.73,43.26,33.57,71.8,36.88.77.09,1.56.14,2.3.32,5.4,1.35,9.71.77,12.93-4.79,4.71-8.14,17.84-11.66,27.41-7.49,9.62,4.19,15.69,13.95,14.57,24.24-1.19,10.99-8.76,18.97-19.93,21.03-9.95,1.84-20.08-3.4-24.79-13.32-1.64-3.45-3.72-4.54-7.41-4.92-20.21-2.07-39.94-6.12-57.68-16.69-24.86-14.81-41.97-36.22-51.95-63.19-21.4-57.82,4.39-120.35,60.66-148.01,21.85-10.74,45.14-14.16,72.43-14.05ZM289.81,371.67c.33-4.57-3.93-9.78-8.37-10.23-4.65-.48-9.69,3.99-10.12,8.96-.38,4.42,4.25,9.47,8.85,9.66,4.42.18,9.33-4.09,9.63-8.39Z"/>
    <path class="cls-1" d="M263.77,58.68c45.65,1.01,87.34,7.73,128.06,20.31,9.78,3.02,19.41,6.54,29.04,10.03,5.67,2.06,7.64,5.5,6.13,9.73-1.56,4.39-5.77,5.93-11.24,3.85-32.34-12.31-65.61-21.05-99.91-25.5-39.68-5.14-79.31-6.38-118,6.3-46.07,15.09-79.71,45.08-102.63,87.51-3.99,7.39-7.26,15.12-10.39,22.92-1.43,3.57-1.36,5.93,2.03,8.71,7.84,6.42,10.14,15.14,7.45,24.79-2.57,9.21-9.05,14.56-18.39,16.47-9.68,1.98-19.89-3.15-24.77-11.65-5.81-10.14-2.61-22.3,3.92-28.3,2.39-2.2,4.77-4.71,8.1-5.28,4.47-.77,6.25-3.53,7.65-7.57,12.97-37.46,35.48-68.05,66.78-92.24,29.63-22.89,63.54-34.56,100.42-38.29,9.56-.97,19.18-1.33,25.74-1.76ZM80.78,220.76c.08-5.07-3.97-9.45-8.8-9.53-4.52-.08-9.46,4.65-9.49,9.07-.03,4.76,4.42,9.49,8.98,9.54,4.85.06,9.23-4.21,9.31-9.08Z"/>
    <path class="cls-1" d="M211.25,256.53c.07-25.65,18.47-44.81,42.54-45.99,14.15-.7,28.21.34,42.21,2.15,3.32.43,5.42-.45,7.7-2.78,6.96-7.13,17.29-8.98,26.21-5.07,9.14,4,14.31,12.63,13.93,23.25-.33,9.35-6.67,17.74-15.87,21.01-13.03,4.63-27.69-3.58-30.78-17.61-.77-3.5-2.25-4.39-5.51-4.72-11.9-1.18-23.78-2.29-35.77-1.79-13.54.57-24.3,8.06-28.29,19.83-4.21,12.41-.5,25.61,9.44,34.24,6.99,6.07,15.59,6.88,24.1,6.99,32.34.41,63.16,7.55,92.42,21,36.82,16.93,67.36,41.86,91.61,74.44.28.37.54.76.8,1.15,3.01,4.59,2.83,9.36-.45,11.73-3.69,2.67-7.98,1.41-11.47-3.33-31.45-42.62-72.88-70.53-124-83.94-16.56-4.35-33.47-6.5-50.64-6.61-16.21-.1-30.17-5.32-39.92-19.13-5.57-7.88-7.8-16.81-8.25-24.81ZM329.43,226.65c.03-4.82-4.33-9.11-9.26-9.12-4.81-.01-8.79,3.92-8.95,8.83-.16,4.94,4.03,9.35,8.93,9.4,4.9.06,9.26-4.22,9.28-9.11Z"/>
    <path class="cls-1" d="M60.94,277.2c0-1.7-.02-2.63,0-3.56.11-4.97,2.46-7.76,6.64-7.9,4.07-.14,7.19,2.57,7.61,7.21.81,9,2.11,17.91,4.42,26.64,7.75,29.25,21.92,54.93,42.46,77.2,25.88,28.07,57.11,47.02,94.14,56.26,12.23,3.05,24.71,4.87,37.34,4.37,28.08-1.11,50.13,10.52,67.9,31.52,3.55,4.2,3.66,9.41.31,12.06-3.36,2.65-7.72,1.55-11.31-2.69-14.76-17.42-32.98-26.87-56.4-26.65-43.54.42-82.04-14.45-116.54-40.54-26.44-19.99-46.39-45.22-60.37-75.16-8.8-18.85-14.37-38.7-16.2-58.76Z"/>
    <path class="cls-1" d="M484.06,313.17c-.08,5.34-5.36,8.42-10.4,6.1-1.9-.87-3.21-2.43-4.6-3.89-20.9-21.83-44.73-39.84-71.13-54.44-9.1-5.03-18.49-9.5-28.06-13.6-5.45-2.34-7.19-5.83-5.42-10.09,1.8-4.36,5.97-5.64,11.45-3.25,20.98,9.14,40.88,20.19,59.59,33.44,16.16,11.44,30.92,24.43,44.76,38.54,2.73,2.79,3.85,4.9,3.81,7.19Z"/>
    <path class="cls-1" d="M97.44,252.51c.97-45,19.07-85.81,55.04-118.5,3.44-3.12,7.17-5.97,11.03-8.57,2.82-1.9,4.35-4.16,4.67-7.54.98-10.49,6.96-17.35,16.7-20.17,9.5-2.75,18.26-.43,24.78,7.49,6.46,7.86,7.13,16.69,3.1,25.83-5.51,12.5-22.96,17.07-34.62,8.66-4.2-3.03-6.77-2.44-10.36.49-27.49,22.46-45.29,51.08-52.7,85.65-6.82,31.81-3.03,62.74,11.47,92.11.34.7.73,1.37,1.08,2.07,2.36,4.79,1.21,9.2-2.88,11.13-3.77,1.79-7.9-.05-10.25-4.66-4.02-7.91-7.4-16.09-10.04-24.56-4.65-14.94-6.9-30.25-7.02-49.44ZM200.81,120.89c.15-4.75-4.63-9.66-9.43-9.7-4.51-.03-8.82,4.32-8.9,8.99-.08,5.07,3.91,9.23,8.98,9.34,4.52.1,9.21-4.23,9.35-8.62Z"/>
    <path class="cls-1" d="M274.83,188.44c-11.63-.19-23.27-.43-34.83,1.07-11.25,1.45-21.24,5.58-29.08,14.16-3.65,3.99-7.81,4.53-11.04,1.7-3.38-2.95-3.15-7.38.5-11.52,11.18-12.65,25.86-18.13,42.05-19.36,39.4-3.01,78.04,1.46,115.82,13.2,48.31,15,91.12,39.77,129.3,72.8,3.67,3.17,4.54,8.09,2.02,11.14-2.87,3.46-7.29,3.37-11.5-.26-25.32-21.8-52.81-40.42-83.19-54.28-38.06-17.37-77.93-27.94-120.05-28.65Z"/>
    <path class="cls-1" d="M407.25,148.3c13.15.37,23.44,10.28,23.61,23.38.04,3.5,1.44,4.91,4.08,6.36,16.64,9.11,32.46,19.52,48.04,30.3,2.03,1.4,4.22,2.76,4.83,5.44.63,2.8-.04,5.29-2.18,7.21-2.31,2.08-5.09,2.56-7.77,1.02-3.76-2.16-7.4-4.56-10.97-7.03-11.5-7.97-23.44-15.21-35.43-22.42-4.51-2.71-7.87-3.21-12.58-.11-8.8,5.79-19.25,4.39-27.61-2.65-7.06-5.94-9.7-17.34-6.14-26.48,3.52-9.02,12.74-15.29,22.12-15.02ZM416.2,172.22c.07-4.96-4.13-9.32-9.04-9.38-4.46-.06-9.05,4.4-9.14,8.88-.11,4.88,4.17,9.53,8.88,9.65,4.76.12,9.24-4.28,9.31-9.15Z"/>
    <path class="cls-1" d="M261.97,21.05c26.56-.66,55.54,5.61,83.73,16.13,1.88.7,3.77,1.51,5.47,2.56,3.33,2.06,4.58,5.1,3.02,8.8-1.63,3.87-4.8,5.34-8.75,4.07-6.2-2-12.26-4.45-18.45-6.49-31.64-10.42-64-13.02-97-8.98-28.4,3.48-55.04,12.28-80.21,25.8-4.84,2.6-9.19,1.61-11.31-2.34-2.1-3.91-.51-7.98,4.5-10.66,26-13.91,53.55-23.04,82.82-26.94,10.8-1.44,21.63-1.99,36.18-1.96Z"/>
    <path class="cls-1" d="M262.67,247.95c45.68,1.68,88.21,13.15,127.79,35.49,20.82,11.75,39.55,26.23,56.68,42.79,6.68,6.45,12.66,13.63,18.85,20.57,1.85,2.08,3.61,4.45,3.21,7.48-.4,2.99-2.13,5.12-5.06,6.13-3.53,1.22-6.02-.53-8.11-3.05-7.14-8.62-14.73-16.82-22.9-24.47-31.89-29.86-68.88-50.57-111.1-61.86-21.1-5.64-42.64-8-64.4-8.63-5.74-.17-8.38-2.32-8.4-7.03-.02-4.59,2.9-7.24,8.24-7.41,1.86-.06,3.72,0,5.2,0Z"/>
    <path class="cls-1" d="M269.98,95.92c46.92.52,92.09,9.85,135.74,26.95,20.13,7.89,39.52,17.3,58.23,28.14.81.47,1.63.91,2.39,1.44,3.8,2.67,4.94,6.69,2.9,10.08-2.05,3.41-6.11,4.38-10.2,2.23-7.69-4.04-15.25-8.34-22.99-12.29-31.55-16.12-64.6-27.91-99.37-34.96-24.9-5.05-50.02-7.16-75.36-7.24-3.1-.01-6.2.38-9.29.31-4.65-.11-7.57-2.63-7.77-6.4-.23-4.25,2.3-6.76,7.14-7.43,6.18-.86,12.38-.87,18.59-.83Z"/>
    <path class="cls-1" d="M133.71,370.02c-.06-14.17,11.65-25.13,25.68-24.05,13.6,1.05,23.64,13.76,21.22,27.54-.72,4.07.49,5.94,3.83,7.63,20.33,10.24,41.62,16.78,64.48,18.16,13.9.84,28.01.57,41.51,4.72,26.56,8.15,47.91,23.7,64.24,46.18,1.19,1.63,2.37,3.27,3.52,4.93,3.6,5.19,3.34,10.1-.65,12.71-3.69,2.42-7.78.92-11.17-4.24-6.79-10.32-14.89-19.38-24.63-27.07-18.19-14.37-38.68-22.01-61.89-22.11-25.18-.11-49.27-5.34-72.25-15.6-4.38-1.95-8.69-4.15-12.8-6.62-2.93-1.76-5.33-1.99-8.62-.59-15.36,6.53-32.39-4.93-32.46-21.59ZM157.13,378.68c5.2.11,9.25-3.77,9.26-8.86,0-5.11-4.03-9.3-8.98-9.33-4.7-.03-9.19,4.53-9.16,9.28.03,4.68,4.15,8.81,8.89,8.91Z"/>
  </g>
  <g>
    <path class="cls-1" d="M268.87,338.62c-15.98-.28-31.28-.96-45.62-7.43-21.63-9.76-36.41-26-44.77-48.08-1.43-3.77-3.4-6.1-7.07-7.85-10.17-4.85-15.12-15.17-12.92-25.79,2.25-10.89,10.55-18.12,21.84-19.02,10.17-.81,19.78,5.61,23.46,15.66,3.62,9.89.62,21.1-8.16,26.89-4.26,2.81-4.08,5.25-2.2,9.09,12.53,25.61,32.53,40.6,61.34,41.46,32.61.97,63.74,7.19,92.73,22.6,30.22,16.07,54.82,38.35,73.67,66.96,2.86,4.34,2.33,8.6-1.26,11.14-3.62,2.56-7.72,1.62-10.69-2.87-11.43-17.24-25.18-32.33-41.55-44.95-20.81-16.04-43.98-27.19-69.57-33.37-9.84-2.38-19.77-3.74-29.22-4.43ZM181.4,263.06c5.32.06,9.32-3.76,9.32-8.89,0-4.9-4.35-9.25-9.23-9.24-4.57.01-9.05,4.38-9.14,8.89-.1,5.1,3.9,9.18,9.04,9.23Z"/>
    <path class="cls-1" d="M331.1,382.03c2.85.09,4.74.73,6.48,1.83,21.81,13.75,40.17,31.01,53.83,53.05,2.96,4.77,2.47,9.74-1.14,11.96-3.71,2.28-8.43.57-11.33-4.15-12.5-20.35-29.11-36.52-49.58-48.71-3.72-2.21-5.32-5.17-4.19-9.3.9-3.28,3.47-4.55,5.93-4.68Z"/>
    <path class="cls-1" d="M21.04,254.94c.07-39.11,9.15-75.96,27.54-110.53,8.88-16.69,19.49-32.11,32.19-46.08,2.35-2.59,2.26-4.98,1.47-8.08-2.74-10.84,2.01-21.87,11.21-26.75,10.26-5.44,21.57-3.54,29.28,4.93,6.29,6.91,7.67,17.87,3.35,26.61-4.3,8.71-13.73,14.08-24.03,12.18-5.88-1.08-9.15.87-12.6,4.97-23.46,27.83-39.55,59.33-47.61,94.89-3.79,16.74-5.88,33.73-5.45,50.85,1.34,53.37,19.07,100.62,54.18,141.02,34.63,39.85,78.18,63.99,130.02,73.26,11.93,2.13,24.03,2.67,36.11,3.31,2.94.15,5.93.13,8.79.72,4.7.97,7.14,4.15,6.52,8.19-.67,4.41-3.72,6.36-7.88,6.44-6.67.13-13.37.31-20.02-.09-26.06-1.57-51.33-6.85-75.55-16.77-50.66-20.73-89.68-54.88-116.98-102.31-17.23-29.94-27.23-62.21-29.78-96.73-.25-3.41-.62-6.81-.76-10.22-.13-3.26-.03-6.53-.03-9.79ZM105.21,74.91c-4.57-.11-9.1,4.1-9.32,8.65-.25,4.98,3.76,9.42,8.71,9.64,4.87.21,9.45-3.99,9.58-8.79.13-4.86-4.14-9.39-8.97-9.5Z"/>
    <path class="cls-1" d="M275.36,134.04c22.42-.13,47.34,4.94,72.1,11.05,5.18,1.28,7.35,4.63,6.33,9.12-.9,3.95-4.61,5.92-9.64,4.74-16.03-3.77-32.1-7.28-48.49-9.08-30.24-3.3-60.05-2.3-87.74,11.99-32.16,16.6-52.11,42.95-57.57,78.91-4.75,31.27,4.88,58.99,24.67,83.27,18.53,22.73,43.26,33.57,71.8,36.88.77.09,1.56.14,2.3.32,5.4,1.35,9.71.77,12.93-4.79,4.71-8.14,17.84-11.66,27.41-7.49,9.62,4.19,15.69,13.95,14.57,24.24-1.19,10.99-8.76,18.97-19.93,21.03-9.95,1.84-20.08-3.4-24.79-13.32-1.64-3.45-3.72-4.54-7.41-4.92-20.21-2.07-39.94-6.12-57.68-16.69-24.86-14.81-41.97-36.22-51.95-63.19-21.4-57.82,4.39-120.35,60.66-148.01,21.85-10.74,45.14-14.16,72.43-14.05ZM289.81,371.67c.33-4.57-3.93-9.78-8.37-10.23-4.65-.48-9.69,3.99-10.12,8.96-.38,4.42,4.25,9.47,8.85,9.66,4.42.18,9.33-4.09,9.63-8.39Z"/>
    <path class="cls-1" d="M263.77,58.68c45.65,1.01,87.34,7.73,128.06,20.31,9.78,3.02,19.41,6.54,29.04,10.03,5.67,2.06,7.64,5.5,6.13,9.73-1.56,4.39-5.77,5.93-11.24,3.85-32.34-12.31-65.61-21.05-99.91-25.5-39.68-5.14-79.31-6.38-118,6.3-46.07,15.09-79.71,45.08-102.63,87.51-3.99,7.39-7.26,15.12-10.39,22.92-1.43,3.57-1.36,5.93,2.03,8.71,7.84,6.42,10.14,15.14,7.45,24.79-2.57,9.21-9.05,14.56-18.39,16.47-9.68,1.98-19.89-3.15-24.77-11.65-5.81-10.14-2.61-22.3,3.92-28.3,2.39-2.2,4.77-4.71,8.1-5.28,4.47-.77,6.25-3.53,7.65-7.57,12.97-37.46,35.48-68.05,66.78-92.24,29.63-22.89,63.54-34.56,100.42-38.29,9.56-.97,19.18-1.33,25.74-1.76ZM80.78,220.76c.08-5.07-3.97-9.45-8.8-9.53-4.52-.08-9.46,4.65-9.49,9.07-.03,4.76,4.42,9.49,8.98,9.54,4.85.06,9.23-4.21,9.31-9.08Z"/>
    <path class="cls-1" d="M211.25,256.53c.07-25.65,18.47-44.81,42.54-45.99,14.15-.7,28.21.34,42.21,2.15,3.32.43,5.42-.45,7.7-2.78,6.96-7.13,17.29-8.98,26.21-5.07,9.14,4,14.31,12.63,13.93,23.25-.33,9.35-6.67,17.74-15.87,21.01-13.03,4.63-27.69-3.58-30.78-17.61-.77-3.5-2.25-4.39-5.51-4.72-11.9-1.18-23.78-2.29-35.77-1.79-13.54.57-24.3,8.06-28.29,19.83-4.21,12.41-.5,25.61,9.44,34.24,6.99,6.07,15.59,6.88,24.1,6.99,32.34.41,63.16,7.55,92.42,21,36.82,16.93,67.36,41.86,91.61,74.44.28.37.54.76.8,1.15,3.01,4.59,2.83,9.36-.45,11.73-3.69,2.67-7.98,1.41-11.47-3.33-31.45-42.62-72.88-70.53-124-83.94-16.56-4.35-33.47-6.5-50.64-6.61-16.21-.1-30.17-5.32-39.92-19.13-5.57-7.88-7.8-16.81-8.25-24.81ZM329.43,226.65c.03-4.82-4.33-9.11-9.26-9.12-4.81-.01-8.79,3.92-8.95,8.83-.16,4.94,4.03,9.35,8.93,9.4,4.9.06,9.26-4.22,9.28-9.11Z"/>
    <path class="cls-1" d="M60.94,277.2c0-1.7-.02-2.63,0-3.56.11-4.97,2.46-7.76,6.64-7.9,4.07-.14,7.19,2.57,7.61,7.21.81,9,2.11,17.91,4.42,26.64,7.75,29.25,21.92,54.93,42.46,77.2,25.88,28.07,57.11,47.02,94.14,56.26,12.23,3.05,24.71,4.87,37.34,4.37,28.08-1.11,50.13,10.52,67.9,31.52,3.55,4.2,3.66,9.41.31,12.06-3.36,2.65-7.72,1.55-11.31-2.69-14.76-17.42-32.98-26.87-56.4-26.65-43.54.42-82.04-14.45-116.54-40.54-26.44-19.99-46.39-45.22-60.37-75.16-8.8-18.85-14.37-38.7-16.2-58.76Z"/>
    <path class="cls-1" d="M484.06,313.17c-.08,5.34-5.36,8.42-10.4,6.1-1.9-.87-3.21-2.43-4.6-3.89-20.9-21.83-44.73-39.84-71.13-54.44-9.1-5.03-18.49-9.5-28.06-13.6-5.45-2.34-7.19-5.83-5.42-10.09,1.8-4.36,5.97-5.64,11.45-3.25,20.98,9.14,40.88,20.19,59.59,33.44,16.16,11.44,30.92,24.43,44.76,38.54,2.73,2.79,3.85,4.9,3.81,7.19Z"/>
    <path class="cls-1" d="M97.44,252.51c.97-45,19.07-85.81,55.04-118.5,3.44-3.12,7.17-5.97,11.03-8.57,2.82-1.9,4.35-4.16,4.67-7.54.98-10.49,6.96-17.35,16.7-20.17,9.5-2.75,18.26-.43,24.78,7.49,6.46,7.86,7.13,16.69,3.1,25.83-5.51,12.5-22.96,17.07-34.62,8.66-4.2-3.03-6.77-2.44-10.36.49-27.49,22.46-45.29,51.08-52.7,85.65-6.82,31.81-3.03,62.74,11.47,92.11.34.7.73,1.37,1.08,2.07,2.36,4.79,1.21,9.2-2.88,11.13-3.77,1.79-7.9-.05-10.25-4.66-4.02-7.91-7.4-16.09-10.04-24.56-4.65-14.94-6.9-30.25-7.02-49.44ZM200.81,120.89c.15-4.75-4.63-9.66-9.43-9.7-4.51-.03-8.82,4.32-8.9,8.99-.08,5.07,3.91,9.23,8.98,9.34,4.52.1,9.21-4.23,9.35-8.62Z"/>
    <path class="cls-1" d="M274.83,188.44c-11.63-.19-23.27-.43-34.83,1.07-11.25,1.45-21.24,5.58-29.08,14.16-3.65,3.99-7.81,4.53-11.04,1.7-3.38-2.95-3.15-7.38.5-11.52,11.18-12.65,25.86-18.13,42.05-19.36,39.4-3.01,78.04,1.46,115.82,13.2,48.31,15,91.12,39.77,129.3,72.8,3.67,3.17,4.54,8.09,2.02,11.14-2.87,3.46-7.29,3.37-11.5-.26-25.32-21.8-52.81-40.42-83.19-54.28-38.06-17.37-77.93-27.94-120.05-28.65Z"/>
    <path class="cls-1" d="M407.25,148.3c13.15.37,23.44,10.28,23.61,23.38.04,3.5,1.44,4.91,4.08,6.36,16.64,9.11,32.46,19.52,48.04,30.3,2.03,1.4,4.22,2.76,4.83,5.44.63,2.8-.04,5.29-2.18,7.21-2.31,2.08-5.09,2.56-7.77,1.02-3.76-2.16-7.4-4.56-10.97-7.03-11.5-7.97-23.44-15.21-35.43-22.42-4.51-2.71-7.87-3.21-12.58-.11-8.8,5.79-19.25,4.39-27.61-2.65-7.06-5.94-9.7-17.34-6.14-26.48,3.52-9.02,12.74-15.29,22.12-15.02ZM416.2,172.22c.07-4.96-4.13-9.32-9.04-9.38-4.46-.06-9.05,4.4-9.14,8.88-.11,4.88,4.17,9.53,8.88,9.65,4.76.12,9.24-4.28,9.31-9.15Z"/>
    <path class="cls-1" d="M261.97,21.05c26.56-.66,55.54,5.61,83.73,16.13,1.88.7,3.77,1.51,5.47,2.56,3.33,2.06,4.58,5.1,3.02,8.8-1.63,3.87-4.8,5.34-8.75,4.07-6.2-2-12.26-4.45-18.45-6.49-31.64-10.42-64-13.02-97-8.98-28.4,3.48-55.04,12.28-80.21,25.8-4.84,2.6-9.19,1.61-11.31-2.34-2.1-3.91-.51-7.98,4.5-10.66,26-13.91,53.55-23.04,82.82-26.94,10.8-1.44,21.63-1.99,36.18-1.96Z"/>
    <path class="cls-1" d="M262.67,247.95c45.68,1.68,88.21,13.15,127.79,35.49,20.82,11.75,39.55,26.23,56.68,42.79,6.68,6.45,12.66,13.63,18.85,20.57,1.85,2.08,3.61,4.45,3.21,7.48-.4,2.99-2.13,5.12-5.06,6.13-3.53,1.22-6.02-.53-8.11-3.05-7.14-8.62-14.73-16.82-22.9-24.47-31.89-29.86-68.88-50.57-111.1-61.86-21.1-5.64-42.64-8-64.4-8.63-5.74-.17-8.38-2.32-8.4-7.03-.02-4.59,2.9-7.24,8.24-7.41,1.86-.06,3.72,0,5.2,0Z"/>
    <path class="cls-1" d="M269.98,95.92c46.92.52,92.09,9.85,135.74,26.95,20.13,7.89,39.52,17.3,58.23,28.14.81.47,1.63.91,2.39,1.44,3.8,2.67,4.94,6.69,2.9,10.08-2.05,3.41-6.11,4.38-10.2,2.23-7.69-4.04-15.25-8.34-22.99-12.29-31.55-16.12-64.6-27.91-99.37-34.96-24.9-5.05-50.02-7.16-75.36-7.24-3.1-.01-6.2.38-9.29.31-4.65-.11-7.57-2.63-7.77-6.4-.23-4.25,2.3-6.76,7.14-7.43,6.18-.86,12.38-.87,18.59-.83Z"/>
    <path class="cls-1" d="M133.71,370.02c-.06-14.17,11.65-25.13,25.68-24.05,13.6,1.05,23.64,13.76,21.22,27.54-.72,4.07.49,5.94,3.83,7.63,20.33,10.24,41.62,16.78,64.48,18.16,13.9.84,28.01.57,41.51,4.72,26.56,8.15,47.91,23.7,64.24,46.18,1.19,1.63,2.37,3.27,3.52,4.93,3.6,5.19,3.34,10.1-.65,12.71-3.69,2.42-7.78.92-11.17-4.24-6.79-10.32-14.89-19.38-24.63-27.07-18.19-14.37-38.68-22.01-61.89-22.11-25.18-.11-49.27-5.34-72.25-15.6-4.38-1.95-8.69-4.15-12.8-6.62-2.93-1.76-5.33-1.99-8.62-.59-15.36,6.53-32.39-4.93-32.46-21.59ZM157.13,378.68c5.2.11,9.25-3.77,9.26-8.86,0-5.11-4.03-9.3-8.98-9.33-4.7-.03-9.19,4.53-9.16,9.28.03,4.68,4.15,8.81,8.89,8.91Z"/>
  </g>
</svg>